<svg width="24" height="24" viewBox="0 0 24 24" fill="none" xmlns="http://www.w3.org/2000/svg">
    <path d="M18 22h-7.8c-2.52 0-3.78 0-4.743-.49a4.5 4.5 0 0 1-1.967-1.967C3 18.58 3 17.32 3 14.8V7m6.2 12h8.6c1.12 0 1.68 0 2.108-.218a2 2 0 0 0 .874-.874C21 17.48 21 16.92 21 15.8V5.2c0-1.12 0-1.68-.218-2.108a2 2 0 0 0-.874-.874C19.48 2 18.92 2 17.8 2H9.2c-1.12 0-1.68 0-2.108.218a2 2 0 0 0-.874.874C6 3.52 6 4.08 6 5.2v10.6c0 1.12 0 1.68.218 2.108a2 2 0 0 0 .874.874C7.52 19 8.08 19 9.2 19z" stroke="#fff" stroke-width="2" stroke-linecap="round" stroke-linejoin="round"/>
</svg>
