<svg width="32" height="32" viewBox="0 0 32 32" fill="none" xmlns="http://www.w3.org/2000/svg">
    <path d="M15.533 8h1.534c1.493 0 2.24 0 2.81.29.502.256.91.664 1.166 1.166.29.57.29 1.317.29 2.81v1.067l3.436-2.061c1.058-.635 1.586-.952 2.021-.911.38.035.726.231.951.538.259.352.259.969.259 2.202V18.9c0 .673 0 1.162-.042 1.526M4 4l4 4m20 20-6.69-6.69M8 8c-1.318.001-2.009.018-2.544.29-.502.256-.91.664-1.165 1.166C4 10.026 4 10.773 4 12.266v7.467c0 1.494 0 2.24.29 2.811.256.502.664.91 1.166 1.165.57.291 1.317.291 2.81.291h8.8c1.494 0 2.24 0 2.811-.29.502-.256.91-.664 1.166-1.166.163-.322.235-.7.266-1.235M8 8l13.31 13.31" stroke="#fff" stroke-width="2" stroke-linecap="round" stroke-linejoin="round"/>
</svg>
