<svg width="24" height="24" viewBox="0 0 24 24" fill="none" xmlns="http://www.w3.org/2000/svg">
    <path d="m4.092 16.782.454-.891-.454.891zm-.874-.874.891-.454-.891.454zm17.564 0-.891-.454.891.454zm-.874.874-.454-.891.454.891zm0-13.564-.454.891.454-.891zm.874.874-.891.454.891-.454zm-16.69-.874.454.891-.454-.891zm-.874.874.891.454-.891-.454zM13 17a1 1 0 1 0-2 0h2zm-2 4a1 1 0 1 0 2 0h-2zm-3-1a1 1 0 1 0 0 2v-2zm8 2a1 1 0 1 0 0-2v2zm-5.887-10.333a1 1 0 1 0-1.886.666l1.886-.666zm5.658.666a1 1 0 1 0-1.885-.666l1.885.666zM9 7a1 1 0 0 0 0 2V7zm.009 2a1 1 0 1 0 0-2v2zM15 7a1 1 0 1 0 0 2V7zm.009 2a1 1 0 1 0 0-2v2zM6.2 4h11.6V2H6.2v2zM20 6.2v7.6h2V6.2h-2zM17.8 16H6.2v2h11.6v-2zM4 13.8V6.2H2v7.6h2zM6.2 16c-.577 0-.949 0-1.232-.024-.272-.022-.373-.06-.422-.085l-.908 1.782c.378.193.772.264 1.167.296.384.032.851.031 1.395.031v-2zM2 13.8c0 .544 0 1.011.03 1.395.033.395.104.789.297 1.167l1.782-.908c-.025-.05-.063-.15-.085-.422C4 14.75 4 14.377 4 13.8H2zm2.546 2.091a1 1 0 0 1-.437-.437l-1.782.908a3 3 0 0 0 1.311 1.311l.908-1.782zM20 13.8c0 .577 0 .949-.024 1.232-.022.272-.06.373-.085.422l1.782.908c.193-.378.264-.772.296-1.167.032-.384.031-.851.031-1.395h-2zM17.8 18c.544 0 1.011 0 1.395-.03.395-.033.789-.104 1.167-.297l-.908-1.782c-.05.025-.15.063-.422.085C18.75 16 18.377 16 17.8 16v2zm2.091-2.546a1 1 0 0 1-.437.437l.908 1.782a3 3 0 0 0 1.311-1.311l-1.782-.908zM17.8 4c.577 0 .949 0 1.232.024.272.022.372.06.422.085l.908-1.782c-.378-.193-.772-.264-1.167-.296C18.811 1.999 18.344 2 17.8 2v2zM22 6.2c0-.544 0-1.011-.03-1.395-.033-.395-.104-.789-.297-1.167l-1.782.908c.025.05.063.15.085.422C20 5.25 20 5.623 20 6.2h2zm-2.546-2.091a1 1 0 0 1 .437.437l1.782-.908a3 3 0 0 0-1.311-1.311l-.908 1.782zM6.2 2c-.544 0-1.011 0-1.395.03-.395.033-.789.104-1.167.297l.908 1.782c.05-.025.15-.063.422-.085C5.25 4 5.623 4 6.2 4V2zM4 6.2c0-.577 0-.949.024-1.232.022-.272.06-.373.085-.422l-1.782-.908c-.193.378-.264.772-.296 1.167C1.999 5.189 2 5.656 2 6.2h2zm-.362-3.873a3 3 0 0 0-1.311 1.311l1.782.908a1 1 0 0 1 .437-.437l-.908-1.782zM11 17v4h2v-4h-2zm-3 5h8v-2H8v2zm4-9c-.87 0-1.612-.555-1.887-1.333l-1.886.666A4.001 4.001 0 0 0 12 15v-2zm1.886-1.333A2.001 2.001 0 0 1 11.999 13v2a4.001 4.001 0 0 0 3.772-2.667l-1.885-.666zM9 9h.009V7H9v2zm6 0h.009V7H15v2z" fill="#fff"/>
</svg>
