<svg width="24" height="24" viewBox="0 0 24 24" fill="none" xmlns="http://www.w3.org/2000/svg">
    <path d="M11 4H7.2c-1.12 0-1.68 0-2.108.218a2 2 0 0 0-.874.874C4 5.52 4 6.08 4 7.2v9.6c0 1.12 0 1.68.218 2.108a2 2 0 0 0 .874.874C5.52 20 6.08 20 7.2 20h9.6c1.12 0 1.68 0 2.108-.218a2 2 0 0 0 .874-.874C20 18.48 20 17.92 20 16.8v-4.3m-9.237-2.263L17.41 3.59a2 2 0 1 1 2.828 2.829l-6.862 6.862c-.761.761-1.142 1.142-1.576 1.445-.385.269-.8.491-1.237.663-.492.194-1.02.3-2.076.514L8 16l.047-.332c.168-1.175.252-1.763.443-2.312.17-.487.401-.95.69-1.377.323-.482.743-.902 1.583-1.742z" stroke="#fff" stroke-width="2" stroke-linecap="round" stroke-linejoin="round"/>
</svg>
