<svg width="120" height="120" viewBox="0 0 120 120" fill="none" xmlns="http://www.w3.org/2000/svg">
    <path d="M58.25 30H64c5.6 0 8.4 0 10.54 1.09a10.001 10.001 0 0 1 4.37 4.37C80 37.6 80 40.4 80 46v4l12.884-7.73c3.966-2.38 5.949-3.57 7.58-3.418a4.998 4.998 0 0 1 3.566 2.02c.97 1.32.97 3.633.97 8.258v21.74c0 2.525 0 4.36-.158 5.722M15 15l15 15m75 75L79.91 79.91M30 30c-4.942.004-7.532.067-9.54 1.09a10.001 10.001 0 0 0-4.37 4.37C15 37.6 15 40.4 15 46v28c0 5.6 0 8.4 1.09 10.54a10.001 10.001 0 0 0 4.37 4.37C22.6 90 25.4 90 31 90h33c5.6 0 8.4 0 10.54-1.09a10.001 10.001 0 0 0 4.37-4.37c.614-1.206.883-2.622 1-4.63M30 30l49.91 49.91" stroke="#fff" stroke-width="5" stroke-linecap="round" stroke-linejoin="round"/>
</svg>
