<svg width="123" height="16" viewBox="0 0 123 16" fill="none" xmlns="http://www.w3.org/2000/svg">
    <g clip-path="url(#xtzt18kdwa)" fill="#fff" fill-opacity=".3">
        <path d="M6.645 15.918 4.507 6.005l-2.125 9.913H0L3.41.64h2.193l3.41 15.292H6.646v-.014zm6.66.082h-2.261V7.816H8.297v-2.22h2.747V.558h2.26V16zM28.517 13.44h-9.961v.762h9.96V16H16.432v-4.29h9.96v-.749h-9.96V9.232h4.9v-.885h-5.848V6.59h13.954v1.757H23.59v.885h4.9v4.208h.027zM25.756.64c1.61 0 2.883 1.007 2.883 2.614s-1.286 2.601-2.883 2.601h-6.564c-1.597 0-2.883-.994-2.883-2.6 0-1.608 1.3-2.615 2.883-2.615h6.564zm-6.537 1.947c-.393 0-.704.272-.704.667s.311.667.704.667h6.523c.393 0 .704-.272.704-.667s-.311-.667-.704-.667H19.22zM36.692 1.13h2.964v1.947h-2.694c1.205.436 2.057 1.39 2.057 2.465V6.7c0 1.497-1.65 2.71-3.573 2.71-1.921 0-3.478-1.213-3.478-2.71V5.583c0-1.117.88-2.07 2.017-2.52H31.4V1.13h3.004V0h2.274v1.13h.014zm4.967 9.655c1.61 0 2.883 1.007 2.883 2.614s-1.286 2.615-2.883 2.615H35.04c-1.597 0-2.882-.994-2.882-2.615 0-1.62 1.299-2.614 2.882-2.614h6.619zM37.016 5.95c0-.708-.663-1.28-1.488-1.28-.826 0-1.49.572-1.49 1.28v.34c0 .68.664 1.253 1.49 1.253.825 0 1.488-.572 1.488-1.253v-.34zm-1.935 6.74a.701.701 0 0 0-.704.708c0 .395.311.708.704.708h6.523a.713.713 0 0 0 .718-.708.713.713 0 0 0-.718-.708h-6.523zm9.393-2.86H42.2V7.68h-1.692V5.665H42.2V4.33h-1.692V2.315H42.2V.558h2.274v9.273zM48.805 13.835V7.843h2.355v5.992h1.448V7.843h2.355v5.992h1.286l.839-10.921h-9.42V.722h11.856v2.192l-.84 10.92h1.963v2.18H46.693v-2.18h2.125-.013zM75.346 12.95 74.723 16H72.3l.636-3.05h-9.798v-1.907h2.503v-.967h-3.37v-2.07h13.954v2.07h-3.37v.967h2.504v1.906h-.013zM72.53.64c1.598 0 2.883 1.457 2.883 3.254 0 1.798-1.299 3.227-2.882 3.227h-6.565c-1.61 0-2.882-1.457-2.882-3.227 0-1.77 1.285-3.254 2.882-3.254h6.565zm-6.564 2.206c-.338 0-.717.422-.717 1.048 0 .627.379 1.035.717 1.035h6.565c.324 0 .703-.422.703-1.035s-.379-1.048-.703-1.048h-6.565zm2.017 8.197h2.53v-.967h-2.53v.967zM91.817 7.203V8.92H77.863V7.203h13.954zm-.65-.722H78.486V4.59h2.206V2.546h-2.206V.64h12.681v1.906H89.11v2.043h2.057V6.48zm-.297 7.136h-9.962v.626h9.962v1.77H78.797v-4.085h9.961v-.585h-9.961V9.627H90.87v4.003-.013zm-7.837-9.028h3.722V2.546h-3.722v2.043zM99.978.64v5.052h-4.371V7.08h4.371v1.947h-6.523V3.867h4.371V2.505h-4.371V.64h6.523zm.893 12.214L97.664 16h-3.18l5.535-5.502h1.719L107.273 16h-3.18l-3.222-3.146zm.271-12.296h2.206v2.996h1.245V.558h2.234v10.458h-2.234v-5.27h-1.245v3.39h-2.206V.559zM122.35 7.094h-5.102v.872H123v1.906h-13.954V7.966h5.752v-.872h-5.116V5.12h2.166V2.628h-2.166V.64h12.682v1.988h-2.017v2.478h2.017V7.08l-.014.014zm-.297 3.663v5.256H109.98v-5.256h12.073zm-2.274 1.893h-7.539v1.47h7.539v-1.47zm-5.549-7.53h3.695V2.628h-3.695V5.12z"/>
    </g>
    <defs>
        <clipPath id="xtzt18kdwa">
            <path fill="#fff" d="M0 0h123v16H0z"/>
        </clipPath>
    </defs>
</svg>
