<svg width="524" height="440" viewBox="0 0 524 440" fill="none" xmlns="http://www.w3.org/2000/svg">
    <g clip-path="url(#eshvpm2kba)">
        <rect x="80" y="20" width="240" height="240" rx="40" fill="#7852EF"/>
        <circle cx="196.571" cy="118" r="46" fill="#FFB7B8"/>
        <circle cx="157.143" cy="136.071" r="14.786" fill="#FFB7B8"/>
        <circle cx="237.643" cy="109.786" r="16.429" fill="#FFB7B8"/>
        <mask id="ze7u8jq4ob" style="mask-type:alpha" maskUnits="userSpaceOnUse" x="150" y="72" width="93" height="92">
            <circle cx="196.571" cy="118" r="46" fill="#F46324"/>
        </mask>
        <g mask="url(#ze7u8jq4ob)" fill="#000">
            <circle cx="160.25" cy="83.679" r="40.25"/>
            <circle cx="220.393" cy="62.964" r="36.964"/>
        </g>
        <path d="M207.651 130.002c-.462.117-.958.229-1.478.331-.51.103-.907.001-.865-.221.036-.203.437-.434.905-.526 2.048-.411 3.472-.91 4.213-1.477 1.913-1.462-.109-3.579-1.801-5.042-2.952-2.558-4.577-4.922-5.106-5.762-.111-.179.194-.441.692-.589.467-.14.932-.115 1.04.056.513.818 2.119 3.148 5.032 5.681 3.008 2.604 3.479 4.338 1.568 5.804-.887.682-2.3 1.268-4.199 1.749l-.001-.004z" fill="#000"/>
        <circle cx="192.993" cy="118.828" r="2.464" transform="rotate(-14.207 192.993 118.828)" fill="#000"/>
        <circle cx="192.993" cy="118.828" r="2.464" transform="rotate(-14.207 192.993 118.828)" fill="#000"/>
        <circle cx="192.993" cy="118.828" r="2.464" transform="rotate(-14.207 192.993 118.828)" fill="#000"/>
        <circle cx="215.518" cy="113.125" r="2.464" transform="rotate(-14.207 215.518 113.125)" fill="#000"/>
        <circle cx="215.518" cy="113.125" r="2.464" transform="rotate(-14.207 215.518 113.125)" fill="#000"/>
        <circle cx="215.518" cy="113.125" r="2.464" transform="rotate(-14.207 215.518 113.125)" fill="#000"/>
        <path d="M198.609 136c1.587 2.655 4.524 4.684 8.114 5.248 3.59.564 7.008-.466 9.332-2.506" stroke="#000" stroke-width="1.5" stroke-linecap="round" stroke-linejoin="round"/>
        <circle cx="180" cy="137" r="8" fill="#F39798"/>
        <circle cx="230" cy="119" r="8" fill="#F39798"/>
        <ellipse cx="165.957" cy="71.692" rx="29.187" ry="17.704" transform="rotate(-31.815 165.957 71.692)" fill="#000"/>
        <path d="M281.294 191.176c-5.503-10.317-8.254-15.476-13.004-18.326C263.54 170 257.693 170 246 170h-83.208c-15.697 0-23.546 0-29.076 4.533-5.529 4.533-7.069 12.23-10.147 27.622l-8 40c-4.427 22.136-6.641 33.205-.64 40.525s17.289 7.32 39.863 7.32h112.541c29.772 0 44.657 0 50.484-9.71 5.826-9.71-1.179-22.845-15.19-49.114l-21.333-40z" fill="#2B2D3E"/>
        <mask id="4xv9j8e8wc" style="mask-type:alpha" maskUnits="userSpaceOnUse" x="111" y="170" width="209" height="120">
            <path d="M281.294 191.176c-5.503-10.317-8.254-15.476-13.004-18.326C263.54 170 257.693 170 246 170h-83.208c-15.697 0-23.546 0-29.076 4.533-5.529 4.533-7.069 12.23-10.147 27.622l-8 40c-4.427 22.136-6.641 33.205-.64 40.525s17.289 7.32 39.863 7.32h112.541c29.772 0 44.657 0 50.484-9.71 5.826-9.71-1.179-22.845-15.19-49.114l-21.333-40z" fill="#2B2D3E"/>
        </mask>
        <g mask="url(#4xv9j8e8wc)" fill="#fff" fill-opacity=".2">
            <circle cx="151" cy="202" r="10"/>
            <circle cx="120" cy="228" r="10"/>
            <circle cx="171" cy="248" r="10"/>
            <circle cx="194" cy="178" r="10"/>
            <circle cx="210" cy="218" r="10"/>
            <circle cx="266" cy="194" r="10"/>
        </g>
    </g>
    <path d="M75 39.75H35C16.084 39.75.75 55.084.75 74S16.084 108.25 35 108.25h74.25V74c0-18.916-15.334-34.25-34.25-34.25z" fill="#fff" stroke="#2B2D3E" stroke-width="1.5"/>
    <path stroke="#2B2D3E" stroke-width="1.5" d="M29 65.25h52M29 81.25h52"/>
    <g clip-path="url(#9qb9sacojd)">
        <rect x="204" y="180" width="240" height="240" rx="120" fill="#2DD5C1"/>
        <circle cx="46" cy="46" r="46" transform="matrix(-1 0 0 1 369.857 232)" fill="#FFB7B8"/>
        <circle cx="14.786" cy="14.786" r="14.786" transform="matrix(-1 0 0 1 378.071 281.286)" fill="#FFB7B8"/>
        <circle cx="16.429" cy="16.429" r="16.429" transform="matrix(-1 0 0 1 299.214 253.357)" fill="#FFB7B8"/>
        <mask id="s7xcy16hue" style="mask-type:alpha" maskUnits="userSpaceOnUse" x="277" y="232" width="93" height="92">
            <circle cx="46" cy="46" r="46" transform="matrix(-1 0 0 1 369.857 232)" fill="#F46324"/>
        </mask>
        <g mask="url(#s7xcy16hue)" fill="#000">
            <circle cx="31" cy="31" r="31" transform="matrix(-1 0 0 1 399 221)"/>
            <circle cx="31" cy="31" r="31" transform="matrix(-1 0 0 1 399 221)"/>
            <circle cx="23.5" cy="23.5" r="23.5" transform="matrix(-1 0 0 1 360 226)"/>
            <circle cx="36.964" cy="36.964" r="36.964" transform="matrix(-1 0 0 1 337 186)"/>
        </g>
        <path d="M312.778 290.002c.462.117.958.229 1.478.331.509.103.906.001.864-.221-.036-.203-.436-.434-.904-.526-2.048-.411-3.473-.91-4.214-1.477-1.912-1.462.109-3.579 1.801-5.042 2.952-2.558 4.577-4.922 5.107-5.762.11-.179-.194-.441-.692-.589-.467-.14-.932-.115-1.041.056-.513.818-2.119 3.148-5.032 5.681-3.007 2.604-3.479 4.338-1.567 5.804.887.682 2.3 1.268 4.199 1.749l.001-.004z" fill="#000"/>
        <circle cx="2.464" cy="2.464" r="2.464" transform="scale(-1 1) rotate(-14.207 946.325 1464.254)" fill="#000"/>
        <circle cx="2.464" cy="2.464" r="2.464" transform="scale(-1 1) rotate(-14.207 946.325 1464.254)" fill="#000"/>
        <circle cx="2.464" cy="2.464" r="2.464" transform="scale(-1 1) rotate(-14.207 946.325 1464.254)" fill="#000"/>
        <circle cx="2.464" cy="2.464" r="2.464" transform="scale(-1 1) rotate(-14.207 934.71 1371.029)" fill="#000"/>
        <circle cx="2.464" cy="2.464" r="2.464" transform="scale(-1 1) rotate(-14.207 934.71 1371.029)" fill="#000"/>
        <circle cx="2.464" cy="2.464" r="2.464" transform="scale(-1 1) rotate(-14.207 934.71 1371.029)" fill="#000"/>
        <path d="M321.779 296.577c-2.056 2.31-5.321 3.753-8.954 3.634-3.632-.119-6.796-1.771-8.697-4.211" stroke="#000" stroke-width="1.5" stroke-linecap="round" stroke-linejoin="round"/>
        <path d="M242.706 351.176c5.503-10.317 8.254-15.476 13.004-18.326C260.46 330 266.307 330 278 330h78.578c17.739 0 26.608 0 32.375 5.395 5.766 5.395 6.356 14.245 7.536 31.944l2.667 40c1.333 19.992 1.999 29.988-3.929 36.325C389.299 450 379.281 450 359.245 450H256.667c-29.772 0-44.657 0-50.484-9.71-5.826-9.71 1.179-22.845 15.19-49.114l21.333-40z" fill="#2B2D3E"/>
        <mask id="oj5ecq2cef" style="mask-type:alpha" maskUnits="userSpaceOnUse" x="204" y="330" width="197" height="120">
            <path d="M242.706 351.176c5.503-10.317 8.254-15.476 13.004-18.326C260.46 330 266.307 330 278 330h78.578c17.739 0 26.608 0 32.375 5.395 5.766 5.395 6.356 14.245 7.536 31.944l2.667 40c1.333 19.992 1.999 29.988-3.929 36.325C389.299 450 379.281 450 359.245 450H256.667c-29.772 0-44.657 0-50.484-9.71-5.826-9.71 1.179-22.845 15.19-49.114l21.333-40z" fill="#2B2D3E"/>
        </mask>
        <g mask="url(#oj5ecq2cef)" stroke="#fff" stroke-width="1.5">
            <path d="M225 348.25h200M225 372.25h200M225 396.25h200"/>
        </g>
    </g>
    <path d="M414 269c0-19.33 15.67-35 35-35h40c19.33 0 35 15.67 35 35s-15.67 35-35 35h-75v-35z" fill="#2B2D3E"/>
    <circle cx="449" cy="269" r="5" fill="#fff"/>
    <circle cx="469" cy="269" r="5" fill="#fff"/>
    <circle cx="489" cy="269" r="5" fill="#fff"/>
    <path d="M417 1v50M442 26h-50M434.678 8.322l-35.356 35.356M434.678 43.678 399.322 8.322" stroke="#2B2D3E" stroke-width="2" stroke-linecap="round"/>
    <circle cx="472" cy="157" r="8" fill="#2B2D3E"/>
    <circle cx="150" cy="308" r="8" fill="#F8485E"/>
    <circle cx="494" cy="432" r="8" fill="#0C82E9"/>
    <circle cx="84" cy="388" r="11.5" stroke="#FFA127"/>
    <defs>
        <clipPath id="eshvpm2kba">
            <rect x="80" y="20" width="240" height="240" rx="40" fill="#fff"/>
        </clipPath>
        <clipPath id="9qb9sacojd">
            <rect x="204" y="180" width="240" height="240" rx="120" fill="#fff"/>
        </clipPath>
    </defs>
</svg>
