<svg width="24" height="24" viewBox="0 0 24 24" fill="none" xmlns="http://www.w3.org/2000/svg">
    <path d="M9 12a3 3 0 0 0 5.123 2.12L9 9v3z" fill="#ADB5BD"/>
    <path d="M12 19v3m-4 0h8M3 3l18 18M5 10s-1.5 9 7.04 9c2.47 0 4.093-.753 5.153-1.823M19.032 13c.204-1.652-.032-3-.032-3m-7-8a3 3 0 0 1 3 3v4.4L9.312 3.666A3 3 0 0 1 12 2zm0 13a3 3 0 0 1-3-3V9l5.123 5.12A2.99 2.99 0 0 1 12 15z" stroke="#ADB5BD" stroke-width="2" stroke-linecap="round" stroke-linejoin="round"/>
    <path d="M10 3.5S10.343 2 12 2a3 3 0 0 1 3 3v3.5l-5-5z" fill="#ADB5BD" stroke="#ADB5BD" stroke-width="2" stroke-linecap="round" stroke-linejoin="round"/>
    <path d="M9 12a3 3 0 0 0 5.123 2.12L9 9v3z" fill="#ADB5BD"/>
    <path d="M12 19v3m-4 0h8M3 3l18 18M5 10s-1.5 9 7.04 9c2.47 0 4.093-.753 5.153-1.823M19.032 13c.204-1.652-.032-3-.032-3m-7-8a3 3 0 0 1 3 3v4.4L9.312 3.666A3 3 0 0 1 12 2zm0 13a3 3 0 0 1-3-3V9l5.123 5.12A2.99 2.99 0 0 1 12 15z" stroke="#ADB5BD" stroke-width="2" stroke-linecap="round" stroke-linejoin="round"/>
</svg>
