<svg width="146" height="146" viewBox="0 0 146 146" fill="none" xmlns="http://www.w3.org/2000/svg">
    <path d="M10.02 80.176C2.055 63.039-1.93 54.47.919 46.672c2.849-7.799 11.417-11.782 28.554-19.75l36.352-16.901C82.961 2.054 91.53-1.93 99.328.918c7.799 2.849 11.783 11.417 19.75 28.554l16.901 36.352c7.967 17.137 11.951 25.705 9.103 33.504-2.849 7.799-11.417 11.783-28.554 19.75l-36.352 16.901c-17.137 7.967-25.705 11.951-33.504 9.103-7.799-2.849-11.782-11.417-19.75-28.554L10.021 80.176z" fill="#FFA127" fill-opacity=".1"/>
</svg>
