<svg width="24" height="24" viewBox="0 0 24 24" fill="none" xmlns="http://www.w3.org/2000/svg">
    <path d="M16 9c.628.835 1 1.874 1 3a4.978 4.978 0 0 1-1 3m2-9.708A8.978 8.978 0 0 1 21 12a8.978 8.978 0 0 1-3 6.708M4.6 9h.901c.551 0 .827 0 1.082-.069a2 2 0 0 0 .631-.296c.216-.152.393-.363.746-.787l2.625-3.15c.436-.523.654-.785.844-.812a.5.5 0 0 1 .442.16c.129.143.129.483.129 1.163V18.79c0 .68 0 1.021-.129 1.164a.5.5 0 0 1-.442.16c-.19-.027-.408-.289-.844-.812l-2.625-3.15c-.353-.424-.53-.636-.746-.788a2.001 2.001 0 0 0-.631-.296C6.328 15 6.053 15 5.5 15H4.6c-.56 0-.84 0-1.054-.11a1 1 0 0 1-.437-.436C3 14.24 3 13.96 3 13.4v-2.8c0-.56 0-.84.109-1.054a1 1 0 0 1 .437-.437c.214-.11.494-.11 1.054-.11z" stroke="#fff" stroke-width="1.5" stroke-linecap="round" stroke-linejoin="round"/>
</svg>
