<svg width="48" height="48" viewBox="0 0 48 48" fill="none" xmlns="http://www.w3.org/2000/svg">
    <path d="M23.3 12h2.3c2.24 0 3.36 0 4.216.436a4 4 0 0 1 1.748 1.748C32 15.04 32 16.16 32 18.4V20l5.154-3.092c1.586-.952 2.379-1.428 3.032-1.367a2 2 0 0 1 1.426.808c.388.528.388 1.453.388 3.303v8.696c0 1.01 0 1.744-.063 2.289M6 6l6 6m30 30L31.964 31.964M12 12c-1.977.002-3.013.027-3.816.436a4 4 0 0 0-1.748 1.748C6 15.04 6 16.16 6 18.4v11.2c0 2.24 0 3.36.436 4.216a4 4 0 0 0 1.748 1.748C9.04 36 10.16 36 12.4 36h13.2c2.24 0 3.36 0 4.216-.436a4 4 0 0 0 1.748-1.748c.246-.482.353-1.049.4-1.852M12 12l19.964 19.964" stroke="#fff" stroke-width="2" stroke-linecap="round" stroke-linejoin="round"/>
</svg>
