<svg width="116" height="15" viewBox="0 0 116 15" fill="none" xmlns="http://www.w3.org/2000/svg">
    <g clip-path="url(#oae9514tba)" fill="#fff" fill-opacity=".3">
        <path d="M6.267 14.923 4.25 5.63l-2.004 9.293H0L3.217.6h2.067l3.217 14.336H6.267v-.013zm6.28.077h-2.132V7.328h-2.59V5.247h2.59V.523h2.132V15zM26.894 12.6H17.5v.715h9.394V15H15.496v-4.022h9.394v-.702h-9.395V8.655h4.621v-.83h-5.514V6.178h13.16v1.647h-5.514v.83h4.62V12.6h.026zM24.29.6c1.519 0 2.719.944 2.719 2.45 0 1.507-1.213 2.439-2.719 2.439H18.1c-1.507 0-2.72-.932-2.72-2.438C15.38 1.544 16.607.6 18.1.6h6.19zm-6.165 1.825c-.37 0-.664.255-.664.626 0 .37.294.625.664.625h6.152c.37 0 .664-.255.664-.625s-.294-.626-.664-.626h-6.152zM34.603 1.06H37.4v1.825h-2.54c1.136.409 1.94 1.302 1.94 2.31v1.086c0 1.404-1.557 2.54-3.37 2.54-1.812 0-3.28-1.136-3.28-2.54V5.234c0-1.047.83-1.94 1.902-2.362h-2.438V1.06h2.833V0h2.145v1.06h.012zm4.685 9.05c1.519 0 2.719.945 2.719 2.452 0 1.506-1.213 2.45-2.72 2.45h-6.24c-1.507 0-2.72-.931-2.72-2.45 0-1.52 1.226-2.451 2.72-2.451h6.24zM34.91 5.58c0-.664-.626-1.2-1.404-1.2-.779 0-1.404.536-1.404 1.2v.319c0 .638.625 1.174 1.404 1.174.778 0 1.404-.536 1.404-1.174v-.32zm-1.825 6.319a.66.66 0 0 0-.664.664c0 .37.293.664.663.664h6.153a.67.67 0 0 0 .676-.664.67.67 0 0 0-.676-.664h-6.153zm8.858-2.681h-2.145V7.2h-1.595V5.31h1.595V4.06h-1.595V2.17h1.595V.523h2.145v8.694zM46.027 12.97V7.353h2.221v5.617h1.366V7.353h2.221v5.617h1.213l.79-10.238h-8.883V.677h11.181v2.055l-.79 10.238h1.85v2.043h-13.16V12.97h2.004-.013zM71.058 12.14 70.47 15h-2.285l.6-2.86h-9.242v-1.787h2.362v-.907h-3.178v-1.94h13.16v1.94h-3.179v.907h2.361v1.787h-.012zM68.403.6c1.506 0 2.718 1.366 2.718 3.05 0 1.686-1.225 3.026-2.718 3.026h-6.19c-1.52 0-2.72-1.366-2.72-3.025 0-1.66 1.213-3.051 2.72-3.051h6.19zm-6.19 2.068c-.32 0-.677.395-.677.983 0 .587.357.97.676.97h6.19c.307 0 .665-.396.665-.97 0-.575-.358-.983-.664-.983h-6.19zm1.901 7.685h2.387v-.907h-2.387v.907zM86.591 6.753V8.36h-13.16V6.753h13.16zm-.612-.677h-11.96V4.302h2.08V2.387h-2.08V.6h11.96v1.787h-1.94v1.915h1.94v1.774zm-.281 6.69h-9.394v.587h9.394v1.66H74.313v-3.83h9.394v-.55h-9.394V9.026h11.385v3.753-.012zm-7.39-8.464h3.51V2.387h-3.51v1.915zM94.288.6v4.736h-4.123v1.302h4.123v1.826h-6.152V3.626h4.123V2.349h-4.123V.6h6.152zm.843 11.451L92.106 15h-3l5.22-5.157h1.622l5.22 5.157h-3l-3.037-2.949zM95.386.523h2.08v2.809h1.175V.523h2.106v9.805h-2.106v-4.94h-1.174v3.178h-2.081V.523zM115.387 6.65h-4.812v.818H116v1.787h-13.16V7.468h5.425V6.65h-4.825V4.8h2.042V2.463h-2.042V.6h11.96v1.863h-1.902v2.324h1.902v1.85l-.013.014zm-.281 3.435v4.927h-11.385v-4.927h11.385zm-2.144 1.774h-7.109v1.379h7.109v-1.379zm-5.233-7.06h3.484V2.464h-3.484V4.8z"/>
    </g>
    <defs>
        <clipPath id="oae9514tba">
            <path fill="#fff" d="M0 0h116v15H0z"/>
        </clipPath>
    </defs>
</svg>
