<svg width="312" height="262" viewBox="0 0 312 262" fill="none" xmlns="http://www.w3.org/2000/svg">
    <g clip-path="url(#320s8tlpja)">
        <rect x="47.633" y="11.908" width="142.901" height="142.901" rx="23.817" fill="#7852EF"/>
        <circle cx="117.042" cy="70.258" r="27.389" fill="#FFB7B8"/>
        <circle cx="93.566" cy="81.019" r="8.804" fill="#FFB7B8"/>
        <circle cx="141.497" cy="65.368" r="9.782" fill="#FFB7B8"/>
        <mask id="2qgbhcb61b" style="mask-type:alpha" maskUnits="userSpaceOnUse" x="89" y="42" width="56" height="56">
            <circle cx="117.042" cy="70.258" r="27.389" fill="#F46324"/>
        </mask>
        <g mask="url(#2qgbhcb61b)" fill="#000">
            <circle cx="95.416" cy="49.823" r="23.966"/>
            <circle cx="131.226" cy="37.489" r="22.009"/>
        </g>
        <path d="M123.639 77.405c-.275.07-.57.136-.88.197-.303.061-.539 0-.514-.132.021-.12.259-.258.538-.313 1.219-.245 2.068-.541 2.509-.879 1.139-.87-.065-2.131-1.072-3.003-1.758-1.523-2.726-2.93-3.041-3.43-.066-.106.116-.263.412-.35.278-.084.555-.07.62.032.305.487 1.261 1.875 2.996 3.383 1.79 1.55 2.071 2.583.933 3.456-.528.406-1.37.755-2.5 1.041l-.001-.002z" fill="#000"/>
        <circle cx="114.912" cy="70.752" r="1.467" transform="rotate(-14.207 114.912 70.752)" fill="#000"/>
        <circle cx="114.912" cy="70.752" r="1.467" transform="rotate(-14.207 114.912 70.752)" fill="#000"/>
        <circle cx="114.912" cy="70.752" r="1.467" transform="rotate(-14.207 114.912 70.752)" fill="#000"/>
        <circle cx="128.324" cy="67.356" r="1.467" transform="rotate(-14.207 128.324 67.356)" fill="#000"/>
        <circle cx="128.324" cy="67.356" r="1.467" transform="rotate(-14.207 128.324 67.356)" fill="#000"/>
        <circle cx="128.324" cy="67.356" r="1.467" transform="rotate(-14.207 128.324 67.356)" fill="#000"/>
        <path d="M118.256 80.977c.945 1.58 2.693 2.788 4.831 3.124 2.137.336 4.172-.277 5.556-1.492" stroke="#000" stroke-width=".893" stroke-linecap="round" stroke-linejoin="round"/>
        <circle cx="107.176" cy="81.572" r="4.763" fill="#F39798"/>
        <circle cx="136.947" cy="70.854" r="4.763" fill="#F39798"/>
        <ellipse cx="98.814" cy="42.686" rx="17.379" ry="10.541" transform="rotate(-31.815 98.814 42.686)" fill="#000"/>
        <path d="M167.488 113.83c-3.276-6.144-4.915-9.215-7.743-10.912-2.828-1.697-6.309-1.697-13.272-1.697H96.93c-9.347 0-14.02 0-17.313 2.699-3.292 2.699-4.209 7.282-6.042 16.447l-4.763 23.816c-2.636 13.181-3.954 19.771-.38 24.129 3.572 4.359 10.293 4.359 23.734 4.359h67.009c17.727 0 26.59 0 30.059-5.781 3.469-5.782-.702-13.603-9.044-29.244l-12.702-23.816z" fill="#2B2D3E"/>
        <mask id="6zpudwwrkc" style="mask-type:alpha" maskUnits="userSpaceOnUse" x="66" y="101" width="125" height="72">
            <path d="M167.488 113.83c-3.276-6.144-4.915-9.215-7.743-10.912-2.828-1.697-6.309-1.697-13.272-1.697H96.93c-9.347 0-14.02 0-17.313 2.699-3.292 2.699-4.209 7.282-6.042 16.447l-4.763 23.816c-2.636 13.181-3.954 19.771-.38 24.129 3.572 4.359 10.293 4.359 23.734 4.359h67.009c17.727 0 26.59 0 30.059-5.781 3.469-5.782-.702-13.603-9.044-29.244l-12.702-23.816z" fill="#2B2D3E"/>
        </mask>
        <g mask="url(#6zpudwwrkc)" fill="#fff" fill-opacity=".2">
            <circle cx="89.908" cy="120.275" r="5.954"/>
            <circle cx="71.45" cy="135.756" r="5.954"/>
            <circle cx="101.817" cy="147.664" r="5.954"/>
            <circle cx="115.511" cy="105.984" r="5.954"/>
            <circle cx="125.038" cy="129.801" r="5.954"/>
            <circle cx="158.382" cy="115.511" r="5.954"/>
        </g>
    </g>
    <path d="M65.05 44.061c0-11.263-9.13-20.393-20.393-20.393H20.84C9.577 23.668.447 32.798.447 44.061s9.13 20.393 20.393 20.393h44.21V44.061z" fill="#fff" stroke="#2B2D3E" stroke-width=".893"/>
    <path stroke="#2B2D3E" stroke-width=".893" d="M17.267 38.851h30.962M17.267 48.378h30.962"/>
    <g clip-path="url(#bjxwa57vbd)">
        <rect x="121.466" y="107.176" width="142.901" height="142.901" rx="71.45" fill="#2DD5C1"/>
        <circle cx="27.389" cy="27.389" r="27.389" transform="matrix(-1 0 0 1 220.22 138.138)" fill="#FFB7B8"/>
        <circle cx="8.804" cy="8.804" r="8.804" transform="matrix(-1 0 0 1 225.111 167.483)" fill="#FFB7B8"/>
        <circle cx="9.782" cy="9.782" r="9.782" transform="matrix(-1 0 0 1 178.158 150.854)" fill="#FFB7B8"/>
        <mask id="4ajm8phfpe" style="mask-type:alpha" maskUnits="userSpaceOnUse" x="165" y="138" width="56" height="55">
            <circle cx="27.389" cy="27.389" r="27.389" transform="matrix(-1 0 0 1 220.22 138.138)" fill="#F46324"/>
        </mask>
        <g mask="url(#4ajm8phfpe)" fill="#000">
            <circle cx="18.458" cy="18.458" r="18.458" transform="matrix(-1 0 0 1 237.573 131.588)"/>
            <circle cx="18.458" cy="18.458" r="18.458" transform="matrix(-1 0 0 1 237.573 131.588)"/>
            <circle cx="13.992" cy="13.992" r="13.992" transform="matrix(-1 0 0 1 214.351 134.565)"/>
            <circle cx="22.009" cy="22.009" r="22.009" transform="matrix(-1 0 0 1 200.657 110.748)"/>
        </g>
        <path d="M186.234 172.673c.275.07.57.137.88.197.303.062.54.001.515-.131-.022-.121-.26-.258-.539-.313-1.219-.245-2.067-.542-2.509-.879-1.138-.871.065-2.132 1.073-3.003 1.758-1.523 2.725-2.93 3.04-3.43.066-.107-.115-.263-.412-.351-.278-.083-.555-.069-.619.033-.306.487-1.262 1.874-2.996 3.383-1.791 1.55-2.072 2.583-.934 3.456.528.405 1.37.754 2.501 1.041v-.003z" fill="#000"/>
        <circle cx="1.467" cy="1.467" r="1.467" transform="scale(-1 1) rotate(-14.207 563.465 871.846)" fill="#000"/>
        <circle cx="1.467" cy="1.467" r="1.467" transform="scale(-1 1) rotate(-14.207 563.465 871.846)" fill="#000"/>
        <circle cx="1.467" cy="1.467" r="1.467" transform="scale(-1 1) rotate(-14.207 563.465 871.846)" fill="#000"/>
        <circle cx="1.467" cy="1.467" r="1.467" transform="scale(-1 1) rotate(-14.207 556.546 816.337)" fill="#000"/>
        <circle cx="1.467" cy="1.467" r="1.467" transform="scale(-1 1) rotate(-14.207 556.546 816.337)" fill="#000"/>
        <circle cx="1.467" cy="1.467" r="1.467" transform="scale(-1 1) rotate(-14.207 556.546 816.337)" fill="#000"/>
        <path d="M191.594 176.589c-1.225 1.375-3.169 2.234-5.332 2.164-2.162-.071-4.046-1.055-5.178-2.508" stroke="#000" stroke-width=".893" stroke-linecap="round" stroke-linejoin="round"/>
        <path d="M144.512 209.097c3.276-6.143 4.914-9.215 7.743-10.912 2.828-1.697 6.309-1.697 13.272-1.697h46.787c10.562 0 15.842 0 19.276 3.213 3.434 3.212 3.785 8.481 4.488 19.02l1.587 23.817c.794 11.903 1.191 17.855-2.339 21.628-3.53 3.773-9.495 3.773-21.425 3.773h-61.077c-17.726 0-26.589 0-30.058-5.782-3.469-5.781.702-13.602 9.044-29.243l12.702-23.817z" fill="#2B2D3E"/>
        <mask id="xufx83gv1f" style="mask-type:alpha" maskUnits="userSpaceOnUse" x="121" y="196" width="118" height="72">
            <path d="M144.512 209.097c3.276-6.143 4.914-9.215 7.743-10.912 2.828-1.697 6.309-1.697 13.272-1.697h46.787c10.562 0 15.842 0 19.276 3.213 3.434 3.212 3.785 8.481 4.488 19.02l1.587 23.817c.794 11.903 1.191 17.855-2.339 21.628-3.53 3.773-9.495 3.773-21.425 3.773h-61.077c-17.726 0-26.589 0-30.058-5.782-3.469-5.781.702-13.602 9.044-29.243l12.702-23.817z" fill="#2B2D3E"/>
        </mask>
        <g mask="url(#xufx83gv1f)" stroke="#fff" stroke-width=".893">
            <path d="M133.969 207.354h119.084M133.969 221.644h119.084M133.969 235.934h119.084"/>
        </g>
    </g>
    <path d="M246.504 160.168c0-11.51 9.33-20.84 20.839-20.84h23.817c11.51 0 20.84 9.33 20.84 20.84 0 11.509-9.33 20.84-20.84 20.84h-44.656v-20.84z" fill="#2B2D3E"/>
    <circle cx="267.344" cy="160.168" r="2.977" fill="#fff"/>
    <circle cx="279.252" cy="160.168" r="2.977" fill="#fff"/>
    <circle cx="291.16" cy="160.168" r="2.977" fill="#fff"/>
    <path d="M248.29.596v29.77M263.176 15.481h-29.771M258.816 4.955l-21.051 21.051M258.816 26.007 237.765 4.956" stroke="#2B2D3E" stroke-width="1.191" stroke-linecap="round"/>
    <circle cx="281.038" cy="93.481" r="4.763" fill="#2B2D3E"/>
    <circle cx="89.313" cy="183.389" r="4.763" fill="#F8485E"/>
    <circle cx="294.137" cy="257.221" r="4.763" fill="#0C82E9"/>
    <circle cx="50.015" cy="231.023" r="6.847" stroke="#FFA127" stroke-width=".595"/>
    <defs>
        <clipPath id="320s8tlpja">
            <rect x="47.633" y="11.908" width="142.901" height="142.901" rx="23.817" fill="#fff"/>
        </clipPath>
        <clipPath id="bjxwa57vbd">
            <rect x="121.466" y="107.176" width="142.901" height="142.901" rx="71.45" fill="#fff"/>
        </clipPath>
    </defs>
</svg>
